<?xml version="1.0" standalone="no"?><!DOCTYPE svg PUBLIC "-//W3C//DTD SVG 1.1//EN" "http://www.w3.org/Graphics/SVG/1.1/DTD/svg11.dtd"><svg t="1597372777537" class="icon" viewBox="0 0 1024 1024" version="1.1" xmlns="http://www.w3.org/2000/svg" p-id="2117" xmlns:xlink="http://www.w3.org/1999/xlink" width="200" height="200"><defs><style type="text/css"></style></defs><path d="M938.666667 128h-42.666667v874.666667a21.333333 21.333333 0 0 1-21.333333 21.333333H149.333333a21.333333 21.333333 0 0 1-21.333333-21.333333V128H85.333333a21.333333 21.333333 0 0 1 0-42.666667h853.333334a21.333333 21.333333 0 0 1 0 42.666667z m-85.333334 0H170.666667v853.333333h682.666666V128z m-533.333333 85.333333a21.333333 21.333333 0 0 1 21.333333 21.333334v640a21.333333 21.333333 0 0 1-42.666666 0V234.666667a21.333333 21.333333 0 0 1 21.333333-21.333334z m192 0a21.333333 21.333333 0 0 1 21.333333 21.333334v640a21.333333 21.333333 0 0 1-42.666666 0V234.666667a21.333333 21.333333 0 0 1 21.333333-21.333334z m192 0a21.333333 21.333333 0 0 1 21.333333 21.333334v640a21.333333 21.333333 0 0 1-42.666666 0V234.666667a21.333333 21.333333 0 0 1 21.333333-21.333334z m0-170.666666H320a21.333333 21.333333 0 0 1 0-42.666667h384a21.333333 21.333333 0 0 1 0 42.666667z" p-id="2118" fill="#f4ea2a"></path></svg>