<?xml version="1.0" standalone="no"?><!DOCTYPE svg PUBLIC "-//W3C//DTD SVG 1.1//EN" "http://www.w3.org/Graphics/SVG/1.1/DTD/svg11.dtd"><svg t="1597372890971" class="icon" viewBox="0 0 1365 1024" version="1.1" xmlns="http://www.w3.org/2000/svg" p-id="3003" xmlns:xlink="http://www.w3.org/1999/xlink" width="266.6015625" height="200"><defs><style type="text/css"></style></defs><path d="M1052.435382 853.334803a28.4442 28.4442 0 0 1 0-56.888399 255.997796 255.997796 0 0 0 0-511.995591 264.787053 264.787053 0 0 0-27.846872 1.564431 369.774594 369.774594 0 0 0-683.855444 0A264.787053 264.787053 0 0 0 312.886195 284.450813a255.997796 255.997796 0 0 0 0 511.995591 28.4442 28.4442 0 0 1 0 56.888399 312.743974 312.743974 0 0 1-7.623046-625.37417 426.378551 426.378551 0 0 1 754.795278 0A312.743974 312.743974 0 0 1 1052.435382 853.334803z m-605.86145-247.692089L654.216589 813.512924V370.72207a28.301979 28.301979 0 1 1 56.575513 0v442.421079l207.187549-207.642656a28.728642 28.728642 0 1 1 40.589872 40.646761l-255.713353 255.997795a29.525079 29.525079 0 0 1-41.187201 0l-255.684909-255.997795a28.728642 28.728642 0 0 1 40.589872-40.50454zM455.107192 967.111601h455.107192a28.4442 28.4442 0 0 1 0 56.888399H455.107192a28.4442 28.4442 0 0 1 0-56.888399z" p-id="3004" fill="#ffffff"></path></svg>