<?xml version="1.0" standalone="no"?><!DOCTYPE svg PUBLIC "-//W3C//DTD SVG 1.1//EN" "http://www.w3.org/Graphics/SVG/1.1/DTD/svg11.dtd"><svg t="1597372920352" class="icon" viewBox="0 0 1024 1024" version="1.1" xmlns="http://www.w3.org/2000/svg" p-id="3845" xmlns:xlink="http://www.w3.org/1999/xlink" width="200" height="200"><defs><style type="text/css"></style></defs><path d="M452.374515 11.767909 19.109121 449.094941c-0.646986 0.646986-0.862649 1.509636-1.401804 2.156622-0.107831 0.107831-0.431325 0.215662-0.539156 0.323493-15.419849 15.527679-15.312018 40.652328 0.215662 56.072177l437.255145 433.265394c15.527679 15.419849 40.544497 15.312018 55.964345-0.215662 7.584121-7.691953 11.430098-17.86402 11.430098-27.928257 0-10.172068-3.953807-20.416023-11.753591-28.14392L100.952933 478.964158l407.60159-411.447566c7.584121-7.691953 11.430098-17.756189 11.430098-27.928257 0-10.279899-3.953807-20.416023-11.753591-28.14392C492.919012-3.975433 467.794364-3.759771 452.374515 11.767909L452.374515 11.767909z" p-id="3846" fill="#ffffff"></path></svg>